# xmcd
#
# Track frame offsets:
#	150
#	21227
#	37307
#	56442
#	75412
#	88895
#	107615
#	124025
#	139845
#	156472
#	167937
#	182080
#	193792
#	216070
#
# Disc length: 3091 seconds
#
# Revision: 0
# Processed by: cddbd v1.5.1PL2 Copyright (c) Steve Scherf et al.
# Submitted via: dBpowerAMP V4.0
#
DISCID=c70c110e
DTITLE=Grant Langston - Koreatown
DYEAR=2006
DGENRE=Country
TTITLE0=Divorce Number One
TTITLE1=Drunken Prince Charming
TTITLE2=Koreatown
TTITLE3=Walk to Georgia
TTITLE4=Baby, It`s Raining
TTITLE5=Pity Party
TTITLE6=Working Man Blues
TTITLE7=Prove Them Wrong
TTITLE8=The Last to Know
TTITLE9=Rub It In
TTITLE10=Three Dollar Whore
TTITLE11=Louisiana Woman Mississippi Man
TTITLE12=Digging Graves
TTITLE13=The End of the Bar
EXTD=
EXTT0=
EXTT1=
EXTT2=
EXTT3=
EXTT4=
EXTT5=
EXTT6=
EXTT7=
EXTT8=
EXTT9=
EXTT10=
EXTT11=
EXTT12=
EXTT13=
PLAYORDER=
